<svg width="1024" height="1024" viewBox="0 0 1024 1024" fill="none" xmlns="http://www.w3.org/2000/svg">
  <!-- Hyred Logo - Export Ready -->
  <!-- 1024x1024 with padding, no rounded corners, transparent background -->

  <defs>
    <linearGradient id="bgGradient" x1="0%" y1="0%" x2="100%" y2="100%">
      <stop offset="0%" style="stop-color:#5B54E8;stop-opacity:1" />
      <stop offset="100%" style="stop-color:#4F46E5;stop-opacity:1" />
    </linearGradient>
  </defs>

  <!-- Main icon box with padding (128px padding on all sides) -->
  <!-- Original content area: 768x768, centered with 128px margin -->

  <!-- Square background (NO rounded corners) -->
  <rect x="128" y="128" width="768" height="768" fill="url(#bgGradient)"/>

  <!-- Inbox bottom part (scaled and centered with padding) -->
  <path d="M256 384L512 555.2L768 384V682.7C768 707.1 748.1 726.9 723.7 726.9H300.3C275.9 726.9 256 707.1 256 682.7V384Z"
        fill="white" fill-opacity="0.95"/>

  <!-- Inbox top/flap (scaled and centered with padding) -->
  <path d="M723.7 298.7H300.3C275.9 298.7 256 318.5 256 342.9V384L512 555.2L768 384V342.9C768 318.5 748.1 298.7 723.7 298.7Z"
        fill="white"/>

  <!-- Green checkmark badge -->
  <circle cx="768" cy="256" r="192" fill="#10B981"/>
  <path d="M693.3 256L746.7 309.3L842.7 213.3"
        stroke="white"
        stroke-width="53"
        stroke-linecap="round"
        stroke-linejoin="round"/>
</svg>
